<svg
  xmlns="http://www.w3.org/2000/svg"
  x="0px"
  y="0px"
  width="36"
  height="36"
  viewBox="0 0 24 24"
>
  <path fill="#f1f1f1ff" d="M2 9.64V18c0 1.657 1.343 3 3 3h2v-8.043L2 9.64zM17 12.98V21h2c1.657 0 3-1.343 3-3V9.689L17 12.98zM7 5.065L6.061 4.442C5.277 3.92 4.32 3.855 3.479 4.262 2.64 4.668 2.001 5.852 2.001 6.784V8.44L7 11.757zm9 .656l-4 2.66-4-2.653v6.693l4 2.63 4-2.611zm4.52-1.47C19.68 3.844 18.723 3.909 17.941 4.431L17 5.057v6.726l4.999-3.29V6.777c0-.932-.64-2.119-1.479-2.526z"></path>
</svg>